<?xml version="1.0" standalone="no"?>
<!DOCTYPE svg PUBLIC "-//W3C//DTD SVG 20010904//EN"
 "http://www.w3.org/TR/2001/REC-SVG-20010904/DTD/svg10.dtd">
<svg version="1.0" xmlns="http://www.w3.org/2000/svg"
 width="512.000000pt" height="512.000000pt" viewBox="0 0 512.000000 512.000000"
 preserveAspectRatio="xMidYMid meet">

<g transform="translate(0.000000,512.000000) scale(0.100000,-0.100000)"
fill="#fff" stroke="none">
<path d="M1842 4841 c-210 -52 -390 -195 -491 -390 -64 -126 -76 -176 -76
-341 0 -133 3 -152 28 -225 41 -117 100 -210 186 -295 158 -155 344 -227 556
-217 421 20 747 407 695 828 -31 257 -180 468 -414 586 -143 72 -326 92 -484
54z m307 -176 c94 -22 194 -79 265 -151 221 -220 221 -570 1 -789 -117 -117
-235 -165 -402 -166 -243 0 -449 150 -528 384 -35 106 -35 106 28 95 90 -17
261 -4 352 26 135 46 301 161 341 238 32 61 -13 128 -85 128 -29 0 -44 -7 -72
-36 -57 -60 -156 -125 -232 -152 -58 -21 -91 -26 -172 -26 -55 -1 -117 3 -139
7 -37 8 -38 10 -33 42 19 119 159 291 287 353 127 62 259 77 389 47z"/>
<path d="M4050 3291 c-377 -103 -693 -190 -703 -194 -28 -11 -49 -70 -36 -104
5 -15 59 -77 119 -138 l108 -110 -191 -209 -192 -209 -6 179 c-5 115 -13 200
-23 239 -71 259 -213 453 -396 539 -54 25 -80 31 -156 34 -84 4 -99 1 -196
-32 -142 -49 -238 -66 -376 -66 -131 0 -244 21 -357 66 -59 23 -85 28 -171 28
-99 1 -102 0 -185 -41 -173 -86 -313 -272 -381 -509 -22 -77 -23 -91 -23 -499
0 -420 0 -420 23 -467 13 -26 44 -68 69 -93 l46 -44 -142 -150 c-165 -174
-173 -191 -118 -246 25 -25 44 -35 67 -35 36 0 11 -25 418 407 209 221 249
259 262 250 9 -7 191 -154 404 -327 213 -173 398 -319 412 -324 56 -22 37 -42
901 902 240 262 458 500 485 529 39 42 48 58 48 89 0 33 -10 46 -91 130 l-91
93 43 11 c24 6 253 68 509 137 557 151 514 141 507 117 -4 -11 -65 -244 -137
-519 -72 -275 -133 -506 -136 -514 -3 -9 -28 9 -78 57 -74 72 -107 89 -151 78
-15 -4 -316 -313 -811 -834 -433 -455 -834 -875 -891 -933 l-103 -106 -347
289 c-192 159 -361 296 -376 304 -57 31 -70 20 -338 -274 -138 -152 -255 -287
-260 -300 -11 -29 11 -86 39 -101 25 -14 67 -14 91 -1 10 5 111 111 226 235
114 124 211 225 216 225 5 0 170 -133 366 -295 329 -271 361 -295 396 -295 30
0 45 7 76 38 22 20 409 426 861 902 453 476 835 878 851 895 l29 29 97 -95
c55 -54 110 -99 125 -103 36 -8 90 14 105 45 7 13 96 339 198 723 166 623 185
703 174 728 -16 39 -46 58 -89 57 -19 -1 -343 -85 -720 -188z m-2430 -186
c165 -56 238 -68 400 -68 163 0 239 13 399 68 124 43 167 44 246 7 84 -40 162
-127 220 -245 73 -149 78 -176 82 -477 l4 -265 -163 -174 -163 -174 -5 387 -5
388 -28 24 c-39 33 -81 31 -118 -5 l-29 -29 0 -482 0 -481 -57 -65 c-31 -36
-63 -62 -69 -60 -7 3 -182 143 -388 312 l-376 307 0 224 c0 227 -4 253 -39
280 -29 22 -86 16 -115 -13 l-26 -27 -1 -246 0 -246 -119 -124 -118 -125 -36
27 c-22 17 -40 42 -46 65 -8 25 -10 155 -8 407 4 354 5 373 27 440 80 242 233
403 387 405 22 0 87 -16 144 -35z"/>
<path d="M965 1091 c-16 -10 -182 -171 -368 -358 -336 -338 -337 -339 -337
-382 0 -58 33 -91 91 -91 43 0 43 1 387 343 189 188 350 354 358 369 22 42 17
76 -15 109 -35 34 -72 38 -116 10z"/>
</g>
</svg>
